<svg xmlns="http://www.w3.org/2000/svg" xmlns:xlink="http://www.w3.org/1999/xlink" width="115" height="65" viewBox="0 0 115 65">
  <defs>
    <filter id="Rectangle_495">
      <feOffset dy="3" input="SourceAlpha"/>
      <feGaussianBlur stdDeviation="12" result="blur"/>
      <feFlood flood-opacity="0.541" result="color"/>
      <feComposite operator="out" in="SourceGraphic" in2="blur"/>
      <feComposite operator="in" in="color"/>
      <feComposite operator="in" in2="SourceGraphic"/>
    </filter>
  </defs>
  <g id="Group_47" data-name="Group 47" transform="translate(-534.311 -252.512)">
    <g data-type="innerShadowGroup">
      <rect id="Rectangle_495-2" data-name="Rectangle 495" width="115" height="65" rx="20" transform="translate(534.311 252.512)" fill="#3c3c3c"/>
      <g transform="matrix(1, 0, 0, 1, 534.31, 252.51)" filter="url(#Rectangle_495)">
        <rect id="Rectangle_495-3" data-name="Rectangle 495" width="115" height="65" rx="20" fill="#fff"/>
      </g>
      <g id="Rectangle_495-4" data-name="Rectangle 495" transform="translate(534.311 252.512)" fill="none" stroke="#707070" stroke-width="1">
        <rect width="115" height="65" rx="20" stroke="none"/>
        <rect x="0.5" y="0.5" width="114" height="64" rx="19.5" fill="none"/>
      </g>
    </g>
    <g id="Group_46" data-name="Group 46" transform="translate(558.369 270.601)">
      <path id="bxs-cog" d="M2.448,21.8,6,26.967a1.975,1.975,0,0,0,2.429.545l2.482-1.2a15.19,15.19,0,0,0,3.37,1.659v2.385a1.654,1.654,0,0,0,1.778,1.492h7.113a1.654,1.654,0,0,0,1.778-1.492V27.969a15.226,15.226,0,0,0,3.37-1.659l2.482,1.2a1.983,1.983,0,0,0,2.429-.545L36.794,21.8a1.375,1.375,0,0,0-.649-2.038L33.7,18.582a9.643,9.643,0,0,0,0-3.319l2.44-1.183a1.372,1.372,0,0,0,.649-2.038L33.234,6.878A1.975,1.975,0,0,0,30.8,6.334l-2.482,1.2a15.112,15.112,0,0,0-3.368-1.659V3.492A1.654,1.654,0,0,0,23.176,2H16.063a1.654,1.654,0,0,0-1.778,1.492V5.877a15.226,15.226,0,0,0-3.37,1.659l-2.481-1.2a2.077,2.077,0,0,0-1.349-.15A1.77,1.77,0,0,0,6,6.878L2.448,12.042A1.375,1.375,0,0,0,3.1,14.08l2.44,1.183a9.643,9.643,0,0,0,0,3.319L3.1,19.766A1.372,1.372,0,0,0,2.448,21.8Zm17.171-10.85c3.923,0,7.113,2.677,7.113,5.969s-3.19,5.969-7.113,5.969-7.113-2.677-7.113-5.969S15.7,10.954,19.619,10.954Z" transform="translate(-2.21 -2)" fill="#e4e4e4"/>
      <path id="bx-chevron-down" d="M29.752,9.293,19.681,19.364,9.61,9.293,6.293,12.61,19.681,26,33.069,12.61Z" transform="translate(36.486 -2.001)" fill="#e4e4e4"/>
    </g>
  </g>
</svg>
